{"title":"Le couperet (2005) The Ax HDTV 720p","uid":11996083,"size":4698637930,"categoryP":"video","categoryS":"movies","magnet":"?xt=urn:btih:fda8852f52916d92d3c0da5309836799dfd56af6&amp;dn=Le+couperet+%282005%29+The+Ax+HDTV+720p&amp;tr=udp%3A%2F%2Ftracker.openbittorrent.com%3A80&amp;tr=udp%3A%2F%2Fopen.demonii.com%3A1337&amp;tr=udp%3A%2F%2Ftracker.coppersurfer.tk%3A6969&amp;tr=udp%3A%2F%2Fexodus.desync.com%3A6969","seeders":0,"leechers":0,"uploader":"niarfe","files":3,"time":1433662333,"description":" &lt;a href=&quot;http://www.imdb.com/title/tt0422015&quot; rel=&quot;nofollow&quot; target=&quot;_NEW&quot;&gt;http://www.imdb.com/title/tt0422015&lt;/a&gt;\n\nBruno Davert, a chemist working for a paper company, is fired. After three years he's still unemployed, too much competition for the few job position he could fit in his sector. He sent tons of resumes, he attended many qualifying courses, he tried everything but there is nothing to do: no job for him in the industry. The only healthy company in the sector is &quot;Arcadia&quot;, but joining it is just an impossible dream. At this point Bruno is desperate. What he could do: to kill all the competitors? Could he?\n\nGeneral\nUnique ID                                : 221304161076178332714138579352387660833 (0xA67DA18D5F2718F6BD55DF2E76AD2C21)\nComplete name                            : Le Couperet 2005 720p HDTV x264-Axmmm team.mkv\nFormat                                   : Matroska\nFormat version                           : Version 4 / Version 2\nFile size                                : 4.38 GiB\nDuration                                 : 1h 55mn\nOverall bit rate                         : 5 441 Kbps\nMovie name                               : Le Couperet 2005 720p HDTV x264-Axmmm team\nEncoded date                             : UTC 2014-05-30 05:13:39\nWriting application                      : mkvmerge v6.0.0 ('Coming Up For Air') built on Jan 20 2013 12:38:35\nWriting library                          : libebml v1.3.0 + libmatroska v1.4.0\n\nVideo\nID                                       : 1\nFormat                                   : AVC\nFormat/Info                              : Advanced Video Codec\nFormat profile                           : &lt;a class=&quot;__cf_email__&quot; href=&quot;/cdn-cgi/l/email-protection&quot; data-cfemail=&quot;e7af8e808fa7abd4c9d6&quot;&gt;[email&amp;#160;protected]&lt;/a&gt;&lt;script data-cfhash='f9e31' type=&quot;text/javascript&quot;&gt;\n/* &lt;![CDATA[ */!function(){try{var t=&quot;currentScript&quot;in document?document.currentScript:function(){for(var t=document.getElementsByTagName(&quot;script&quot;),e=t.length;e--;)if(t[e].getAttribute(&quot;data-cfhash&quot;))return t[e]}();if(t&amp;&amp;t.previousSibling){var e,r,n,i,c=t.previousSibling,a=c.getAttribute(&quot;data-cfemail&quot;);if(a){for(e=&quot;&quot;,r=parseInt(a.substr(0,2),16),n=2;a.length-n;n+=2)i=parseInt(a.substr(n,2),16)^r,e+=String.fromCharCode(i);e=document.createTextNode(e),c.parentNode.replaceChild(e,c)}t.parentNode.removeChild(t);}}catch(u){}}()/* ]]&gt; */&lt;/script&gt;\nFormat settings, CABAC                   : Yes\nFormat settings, ReFrames                : 5 frames\nCodec ID                                 : V_MPEG4/ISO/AVC\nDuration                                 : 1h 55mn\nBit rate                                 : 5 183 Kbps\nWidth                                    : 1 280 pixels\nHeight                                   : 692 pixels\nDisplay aspect ratio                     : 1.85:1\nFrame rate mode                          : Constant\nFrame rate                               : 25.000 fps\nColor space                              : YUV\nChroma subsampling                       : 4:2:0\nBit depth                                : 8 bits\nScan type                                : Progressive\nBits/(Pixel*Frame)                       : 0.234\nStream size                              : 4.08 GiB (93%)\nWriting library                          : x264 core 129 r2245 bc13772\nEncoding settings                        : cabac=1 / ref=5 / deblock=1:0:0 / analyse=0x3:0x113 / me=umh / subme=8 / psy=1 / psy_rd=1.00:0.00 / mixed_ref=1 / me_range=16 / chroma_me=1 / trellis=1 / 8x8dct=1 / cqm=0 / deadzone=21,11 / fast_pskip=1 / chroma_qp_offset=-2 / threads=6 / lookahead_threads=1 / sliced_threads=0 / nr=0 / decimate=1 / interlaced=0 / bluray_compat=0 / constrained_intra=0 / bframes=3 / b_pyramid=2 / b_adapt=2 / b_bias=0 / direct=3 / weightb=1 / open_gop=0 / weightp=2 / keyint=250 / keyint_min=25 / scenecut=40 / intra_refresh=0 / rc_lookahead=50 / rc=2pass / mbtree=1 / bitrate=5183 / ratetol=1.0 / qcomp=0.60 / qpmin=0 / qpmax=69 / qpstep=4 / cplxblur=20.0 / qblur=0.5 / ip_ratio=1.40 / aq=1:1.00\nDefault                                  : Yes\nForced                                   : No\n\nAudio\nID                                       : 2\nFormat                                   : MPEG Audio\nFormat version                           : Version 1\nFormat profile                           : Layer 2\nCodec ID                                 : A_MPEG/L2\nCodec ID/Hint                            : MP2\nDuration                                 : 1h 55mn\nBit rate mode                            : Constant\nBit rate                                 : 256 Kbps\nChannel(s)                               : 2 channels\nSampling rate                            : 48.0 KHz\nCompression mode                         : Lossy\nStream size                              : 211 MiB (5%)\nLanguage                                 : French\nDefault                                  : Yes\nForced                                   : No","torrent":{"xt":"urn:btih:fda8852f52916d92d3c0da5309836799dfd56af6","amp;dn":"Le+couperet+%282005%29+The+Ax+HDTV+720p","amp;tr":["udp%3A%2F%2Ftracker.openbittorrent.com%3A80","udp%3A%2F%2Fopen.demonii.com%3A1337","udp%3A%2F%2Ftracker.coppersurfer.tk%3A6969","udp%3A%2F%2Fexodus.desync.com%3A6969"],"infoHash":"fda8852f52916d92d3c0da5309836799dfd56af6","infoHashBuffer":{"type":"Buffer","data":[253,168,133,47,82,145,109,146,211,192,218,83,9,131,103,153,223,213,106,246]},"announce":[],"urlList":[]}}